<svg width="16" height="18" viewBox="0 0 16 18" fill="none" xmlns="http://www.w3.org/2000/svg">
<path d="M14.6667 5.23332V13.16C14.6667 13.8067 14.14 14.4 13.4933 14.48L13.2867 14.5067C12.1933 14.6533 10.6533 15.1067 9.41333 15.6267C8.98 15.8067 8.5 15.48 8.5 15.0067V5.73332C8.5 5.48665 8.64 5.25998 8.86 5.13998C10.08 4.47998 11.9267 3.89332 13.18 3.78665H13.22C14.02 3.78665 14.6667 4.43332 14.6667 5.23332Z" fill="#E0CDB6"/>
<path d="M7.13999 5.13998C5.91999 4.47998 4.07333 3.89332 2.81999 3.78665H2.77333C1.97333 3.78665 1.32666 4.43332 1.32666 5.23332V13.16C1.32666 13.8067 1.85333 14.4 2.49999 14.48L2.70666 14.5067C3.79999 14.6533 5.33999 15.1067 6.57999 15.6267C7.01333 15.8067 7.49333 15.48 7.49333 15.0067V5.73332C7.49333 5.47998 7.35999 5.25998 7.13999 5.13998ZM3.33333 7.15998H4.83333C5.10666 7.15998 5.33333 7.38665 5.33333 7.65998C5.33333 7.93998 5.10666 8.15998 4.83333 8.15998H3.33333C3.05999 8.15998 2.83333 7.93998 2.83333 7.65998C2.83333 7.38665 3.05999 7.15998 3.33333 7.15998ZM5.33333 10.16H3.33333C3.05999 10.16 2.83333 9.93998 2.83333 9.65998C2.83333 9.38665 3.05999 9.15998 3.33333 9.15998H5.33333C5.60666 9.15998 5.83333 9.38665 5.83333 9.65998C5.83333 9.93998 5.60666 10.16 5.33333 10.16Z" fill="#E0CDB6"/>
</svg>
