<svg width="48" height="58" viewBox="0 0 48 58" fill="none" xmlns="http://www.w3.org/2000/svg">
<path d="M22 10C27.5228 10 32 5.52285 32 0V10H22Z" fill="#CBB295"/>
<g filter="url(#filter0_d_1_513)">
<path d="M16 18C16 14.2288 16 12.3431 17.1716 11.1716C18.3431 10 20.2288 10 24 10H32V34H24C20.2288 34 18.3431 34 17.1716 32.8284C16 31.6569 16 29.7712 16 26V18Z" fill="#CBB295" shape-rendering="crispEdges"/>
<rect x="16" y="14" width="16" height="16" rx="8" fill="#CBB295"/>
<path d="M26.3267 27.84C26.2 27.84 26.0734 27.7933 25.9734 27.6933C25.78 27.5 25.78 27.18 25.9734 26.9866L29.3134 23.6466C29.5067 23.4533 29.8267 23.4533 30.02 23.6466C30.2134 23.84 30.2134 24.16 30.02 24.3533L26.68 27.6933C26.58 27.7866 26.4534 27.84 26.3267 27.84Z" fill="white"/>
<path d="M29.6667 24.4933H18.3334C18.06 24.4933 17.8334 24.2667 17.8334 23.9933C17.8334 23.72 18.06 23.4933 18.3334 23.4933H29.6667C29.94 23.4933 30.1667 23.72 30.1667 23.9933C30.1667 24.2667 29.94 24.4933 29.6667 24.4933Z" fill="white"/>
<path d="M18.3333 20.5067C18.2066 20.5067 18.08 20.46 17.98 20.36C17.7866 20.1667 17.7866 19.8467 17.98 19.6533L21.32 16.3133C21.5133 16.12 21.8333 16.12 22.0266 16.3133C22.22 16.5067 22.22 16.8267 22.0266 17.02L18.6866 20.36C18.5933 20.4533 18.46 20.5067 18.3333 20.5067Z" fill="white"/>
<path d="M29.6667 20.5067H18.3334C18.06 20.5067 17.8334 20.28 17.8334 20.0067C17.8334 19.7333 18.06 19.5067 18.3334 19.5067H29.6667C29.94 19.5067 30.1667 19.7333 30.1667 20.0067C30.1667 20.28 29.94 20.5067 29.6667 20.5067Z" fill="white"/>
</g>
<path d="M22 34C27.5228 34 32 38.4772 32 44V34H22Z" fill="#CBB295"/>
<defs>
<filter id="filter0_d_1_513" x="0" y="2" width="48" height="56" filterUnits="userSpaceOnUse" color-interpolation-filters="sRGB">
<feFlood flood-opacity="0" result="BackgroundImageFix"/>
<feColorMatrix in="SourceAlpha" type="matrix" values="0 0 0 0 0 0 0 0 0 0 0 0 0 0 0 0 0 0 127 0" result="hardAlpha"/>
<feOffset dy="8"/>
<feGaussianBlur stdDeviation="8"/>
<feComposite in2="hardAlpha" operator="out"/>
<feColorMatrix type="matrix" values="0 0 0 0 0.47451 0 0 0 0 0.345098 0 0 0 0 0.25098 0 0 0 0.1 0"/>
<feBlend mode="normal" in2="BackgroundImageFix" result="effect1_dropShadow_1_513"/>
<feBlend mode="normal" in="SourceGraphic" in2="effect1_dropShadow_1_513" result="shape"/>
</filter>
</defs>
</svg>
