<svg width="16" height="16" viewBox="0 0 16 16" fill="none" xmlns="http://www.w3.org/2000/svg">
<path d="M5.33301 2.08334H8.82129C8.57349 2.31214 8.41699 2.63851 8.41699 3.00034V4.33334C8.41699 5.76089 9.57245 6.91635 11 6.91635H12.333C12.6951 6.91635 13.0212 6.75918 13.25 6.51108V11.3333C13.25 12.2182 13.0289 12.8412 12.6592 13.2396C12.2987 13.6278 11.6905 13.9163 10.667 13.9164H5.33301C4.30949 13.9163 3.70133 13.6278 3.34082 13.2396C2.97107 12.8412 2.75 12.2182 2.75 11.3333V4.66635C2.75005 3.78156 2.97102 3.15841 3.34082 2.7601C3.65633 2.42033 4.16157 2.15658 4.96875 2.09604L5.33301 2.08334ZM5.33301 10.0833C4.64561 10.0835 4.08301 10.6459 4.08301 11.3333C4.08301 12.0208 4.64561 12.5832 5.33301 12.5833H10.667C11.3544 12.5832 11.917 12.0208 11.917 11.3333C11.917 10.6459 11.3544 10.0835 10.667 10.0833H5.33301ZM5.33301 7.41635C4.64572 7.41653 4.08319 7.97906 4.08301 8.66635C4.08301 9.35379 4.64561 9.91617 5.33301 9.91635H8C8.68755 9.91635 9.25 9.3539 9.25 8.66635C9.24982 7.97895 8.68744 7.41635 8 7.41635H5.33301ZM10.667 2.08334C11.6905 2.0834 12.2987 2.37186 12.6592 2.7601C13.029 3.15841 13.2499 3.78156 13.25 4.66635V4.82065C13.0212 4.57305 12.6947 4.41635 12.333 4.41635H11C10.9542 4.41635 10.917 4.37913 10.917 4.33334V3.00034C10.917 2.63868 10.7603 2.31212 10.5127 2.08334H10.667Z" fill="#E0CDB6" stroke="#E0CDB6" stroke-width="1.5"/>
</svg>
