<svg width="24" height="24" viewBox="0 0 24 24" fill="none" xmlns="http://www.w3.org/2000/svg">
<path d="M19.7501 8.31666H15.1001C14.7751 8.31666 14.5167 8.05833 14.5167 7.73333C14.5167 7.40833 14.7751 7.14999 15.1001 7.14999H19.7501C20.0751 7.14999 20.3334 7.40833 20.3334 7.73333C20.3334 8.05833 20.0751 8.31666 19.7501 8.31666Z" fill="#B28666"/>
<path d="M7.34996 8.31666H4.24996C3.92496 8.31666 3.66663 8.05833 3.66663 7.73333C3.66663 7.40833 3.92496 7.14999 4.24996 7.14999H7.34996C7.67496 7.14999 7.93329 7.40833 7.93329 7.73333C7.93329 8.05833 7.66663 8.31666 7.34996 8.31666Z" fill="#B28666"/>
<path d="M10.45 11.025C12.2679 11.025 13.7417 9.55127 13.7417 7.73333C13.7417 5.9154 12.2679 4.44167 10.45 4.44167C8.63205 4.44167 7.15833 5.9154 7.15833 7.73333C7.15833 9.55127 8.63205 11.025 10.45 11.025Z" fill="#B28666"/>
<path d="M19.75 16.8417H16.65C16.325 16.8417 16.0667 16.5833 16.0667 16.2583C16.0667 15.9333 16.325 15.675 16.65 15.675H19.75C20.075 15.675 20.3333 15.9333 20.3333 16.2583C20.3333 16.5833 20.075 16.8417 19.75 16.8417Z" fill="#B28666"/>
<path d="M8.89996 16.8417H4.24996C3.92496 16.8417 3.66663 16.5833 3.66663 16.2583C3.66663 15.9333 3.92496 15.675 4.24996 15.675H8.89996C9.22496 15.675 9.48329 15.9333 9.48329 16.2583C9.48329 16.5833 9.21663 16.8417 8.89996 16.8417Z" fill="#B28666"/>
<path d="M13.55 19.5583C15.3679 19.5583 16.8416 18.0846 16.8416 16.2667C16.8416 14.4487 15.3679 12.975 13.55 12.975C11.732 12.975 10.2583 14.4487 10.2583 16.2667C10.2583 18.0846 11.732 19.5583 13.55 19.5583Z" fill="#B28666"/>
</svg>
