<svg width="24" height="24" viewBox="0 0 24 24" fill="none" xmlns="http://www.w3.org/2000/svg">
<path d="M17.9333 9.59999C17.6083 9.59999 17.3499 9.85833 17.3499 10.1833V11.5C17.3499 14.45 14.9499 16.85 11.9999 16.85C9.04994 16.85 6.64994 14.45 6.64994 11.5V10.175C6.64994 9.84999 6.39161 9.59166 6.06661 9.59166C5.74161 9.59166 5.48328 9.84999 5.48328 10.175V11.4917C5.48328 14.8833 8.09161 17.675 11.4166 17.975V19.75C11.4166 20.075 11.6749 20.3333 11.9999 20.3333C12.3249 20.3333 12.5833 20.075 12.5833 19.75V17.975C15.8999 17.6833 18.5166 14.8833 18.5166 11.4917V10.175C18.5083 9.85833 18.2499 9.59999 17.9333 9.59999Z" fill="#9288E3"/>
<path d="M12 3.66667C9.96665 3.66667 8.31665 5.31667 8.31665 7.35001V11.6167C8.31665 13.65 9.96665 15.3 12 15.3C14.0333 15.3 15.6833 13.65 15.6833 11.6167V7.35001C15.6833 5.31667 14.0333 3.66667 12 3.66667ZM13.0917 9.45834C13.0333 9.675 12.8417 9.81667 12.625 9.81667C12.5833 9.81667 12.5417 9.80834 12.5 9.8C12.175 9.70834 11.8333 9.70834 11.5083 9.8C11.2417 9.875 10.9833 9.71667 10.9167 9.45834C10.8417 9.2 11 8.93334 11.2583 8.86667C11.75 8.73334 12.2667 8.73334 12.7583 8.86667C13.0083 8.93334 13.1583 9.2 13.0917 9.45834ZM13.5333 7.84167C13.4583 8.04167 13.275 8.15834 13.075 8.15834C13.0167 8.15834 12.9667 8.15 12.9083 8.13334C12.325 7.91667 11.675 7.91667 11.0917 8.13334C10.8417 8.22501 10.5583 8.09167 10.4667 7.84167C10.375 7.59167 10.5083 7.30834 10.7583 7.225C11.5583 6.93334 12.4417 6.93334 13.2417 7.225C13.4917 7.31667 13.625 7.59167 13.5333 7.84167Z" fill="#9288E3"/>
</svg>
