<svg width="24" height="24" viewBox="0 0 24 24" fill="none" xmlns="http://www.w3.org/2000/svg">
<path d="M17.7833 6.51666L13.4749 4.025C12.6499 3.55 11.3583 3.55 10.5333 4.025L6.18328 6.53333C4.45828 7.7 4.35828 7.875 4.35828 9.73333V14.2583C4.35828 16.1167 4.45828 16.3 6.21661 17.4833L10.5249 19.975C10.9416 20.2167 11.4749 20.3333 11.9999 20.3333C12.5249 20.3333 13.0583 20.2167 13.4666 19.975L17.8166 17.4667C19.5416 16.3 19.6416 16.125 19.6416 14.2667V9.73333C19.6416 7.875 19.5416 7.7 17.7833 6.51666ZM11.9999 14.7083C10.5083 14.7083 9.29161 13.4917 9.29161 12C9.29161 10.5083 10.5083 9.29166 11.9999 9.29166C13.4916 9.29166 14.7083 10.5083 14.7083 12C14.7083 13.4917 13.4916 14.7083 11.9999 14.7083Z" fill="#B28666"/>
</svg>
