<svg width="20" height="20" viewBox="0 0 20 20" fill="none" xmlns="http://www.w3.org/2000/svg">
<path d="M16.1084 13.9583C15.975 13.9583 15.85 13.9167 15.7334 13.8333C15.4584 13.625 15.4 13.2333 15.6084 12.9583C16.9167 11.2167 16.9167 8.78334 15.6084 7.04167C15.4 6.76667 15.4584 6.375 15.7334 6.16667C16.0084 5.95834 16.4 6.01667 16.6084 6.29167C18.25 8.475 18.25 11.525 16.6084 13.7083C16.4917 13.875 16.3 13.9583 16.1084 13.9583Z" fill="#9288E3"/>
<path d="M12.7917 3.14999C11.8584 2.63333 10.6667 2.76666 9.45003 3.52499L7.01669 5.04999C6.85002 5.14999 6.65836 5.20833 6.46669 5.20833H5.69169H5.27502C3.25836 5.20833 2.15002 6.31666 2.15002 8.33333V11.6667C2.15002 13.6833 3.25836 14.7917 5.27502 14.7917H5.69169H6.46669C6.65836 14.7917 6.85002 14.85 7.01669 14.95L9.45003 16.475C10.1834 16.9333 10.9 17.1583 11.5667 17.1583C12 17.1583 12.4167 17.0583 12.7917 16.85C13.7167 16.3333 14.2334 15.2583 14.2334 13.825V6.17499C14.2334 4.74166 13.7167 3.66666 12.7917 3.14999Z" fill="#9288E3"/>
</svg>
