<svg width="121" height="19" viewBox="0 0 121 19" fill="none" xmlns="http://www.w3.org/2000/svg">
<path d="M4.68923 17.7514H7.70341L11.2292 5.21866H11.3004L14.8262 17.7514H17.8404L22.5274 0.275841H19.2819L16.2432 13.4648H16.1809L12.6796 0.275841H9.84782L6.34647 13.4648H6.28419L3.24553 0.275841H0L4.687 17.7514H4.68923ZM27.9418 18.0073C31.7079 18.0073 34.1548 15.498 34.1548 11.3316V11.3071C34.1548 7.16509 31.6701 4.64919 27.9307 4.64919C24.2025 4.64919 21.731 7.19178 21.731 11.3071V11.3316C21.731 15.4847 24.1646 18.0073 27.9441 18.0073H27.9418ZM27.9552 15.5737C26.0288 15.5737 24.8053 14.0365 24.8053 11.3316V11.3071C24.8053 8.64437 26.0532 7.09613 27.9307 7.09613C29.8438 7.09613 31.0806 8.63325 31.0806 11.3071V11.3316C31.0806 14.0232 29.8571 15.5737 27.9552 15.5737ZM36.0946 17.7514H39.1088V10.3038C39.1088 8.40191 40.1387 7.32748 41.8449 7.32748C42.3521 7.32748 42.817 7.39866 43.0684 7.49654V4.76931C42.8415 4.71147 42.49 4.64919 42.1141 4.64919C40.6348 4.64919 39.5715 5.58348 39.1711 7.13395H39.1088V4.91835H36.0946V17.7514ZM48.9032 18.0073C50.754 18.0073 52.1732 17.0863 52.9006 15.5737H52.974V17.7514H55.9882V0.275841H52.974V7.1206H52.9006C52.1732 5.58347 50.7095 4.64919 48.8921 4.64919C45.671 4.64919 43.6022 7.17843 43.6022 11.3204V11.3316C43.6022 15.4602 45.6599 18.0073 48.9054 18.0073H48.9032ZM49.813 15.4602C47.8733 15.4602 46.6765 13.8853 46.6765 11.3316V11.3204C46.6765 8.76672 47.8866 7.19178 49.813 7.19178C51.6638 7.19178 52.974 8.81566 52.974 11.3204V11.3316C52.974 13.8519 51.6771 15.4602 49.813 15.4602Z" fill="#9288E3"/>
<path d="M65.8529 18.2831C70.1195 18.2831 72.6866 16.2121 72.6866 12.9554V12.9443C72.6866 10.2193 71.0983 8.74002 67.4657 7.99259L65.5771 7.60331C63.4705 7.16953 62.514 6.44212 62.514 5.20531V5.19196C62.514 3.79943 63.7842 2.83845 65.8329 2.83178C67.7905 2.8251 69.0829 3.75049 69.3432 5.26537L69.3676 5.40996H72.3596L72.3462 5.20308C72.166 2.21337 69.6679 0.202426 65.8529 0.202426C62.0869 0.202426 59.3752 2.28677 59.3752 5.36102V5.37214C59.3752 7.9748 61.0681 9.58533 64.5093 10.2905L66.3868 10.6753C68.6425 11.138 69.5478 11.8543 69.5478 13.1601V13.1734C69.5478 14.6727 68.1664 15.6537 65.9642 15.6537C63.773 15.6537 62.2537 14.7195 62.0046 13.2224L61.9801 13.0733H58.9882L59.0015 13.2557C59.2128 16.3923 61.8489 18.2831 65.8552 18.2831H65.8529ZM78.0476 18.2008C79.7427 18.2008 81.173 17.3532 81.9071 16.0052H81.9805V17.9806H84.9947V9.15155C84.9947 6.57337 82.9237 4.87831 79.716 4.87831C76.4593 4.87831 74.5018 6.58672 74.306 8.86237L74.2927 9.00696H77.0866L77.1111 8.90019C77.3269 7.95923 78.1766 7.28743 79.607 7.28743C81.133 7.28743 81.9805 8.07712 81.9805 9.36955V10.2549L78.6237 10.4618C75.5161 10.6531 73.7454 12.0256 73.7454 14.2968V14.3213C73.7454 16.6103 75.4783 18.1986 78.0431 18.1986L78.0476 18.2008ZM76.7485 14.2034V14.19C76.7485 13.1734 77.5627 12.5261 79.0508 12.4327L81.9805 12.2503V13.2224C81.9805 14.7461 80.6747 15.8962 78.9418 15.8962C77.6183 15.8962 76.7463 15.2556 76.7463 14.2011L76.7485 14.2034ZM91.9596 18.2386C92.5668 18.2386 93.1007 18.1763 93.4477 18.1274V15.8628C93.2453 15.8762 93.014 15.9118 92.7248 15.9118C91.6214 15.9118 91.0631 15.5114 91.0631 14.2545V7.47206H93.4477V5.14969H91.0631V1.88859H88V5.14969H86.1848V7.47206H88V14.5081C88 17.1486 89.2724 18.2408 91.9596 18.2408V18.2386ZM100.715 18.2386C104.481 18.2386 106.928 15.7294 106.928 11.5629V11.5384C106.928 7.39643 104.443 4.88053 100.704 4.88053C96.9758 4.88053 94.5044 7.42312 94.5044 11.5384V11.5629C94.5044 15.716 96.938 18.2386 100.717 18.2386H100.715ZM100.729 15.805C98.8021 15.805 97.5786 14.2679 97.5786 11.5629V11.5384C97.5786 8.87572 98.8266 7.32747 100.704 7.32747C102.617 7.32747 103.854 8.86459 103.854 11.5384V11.5629C103.854 14.2545 102.63 15.805 100.729 15.805ZM108.637 17.9828H111.651V10.5352C111.651 8.63325 112.681 7.55882 114.387 7.55882C114.894 7.55882 115.359 7.63 115.61 7.72788V5.00065C115.383 4.94282 115.032 4.88053 114.656 4.88053C113.177 4.88053 112.113 5.81482 111.713 7.36529H111.651V5.14969H108.637V17.9828ZM118.533 3.30559C119.477 3.30559 120.204 2.55816 120.204 1.66169C120.204 0.740756 119.477 0 118.533 0C117.588 0 116.847 0.740756 116.847 1.66169C116.847 2.55816 117.588 3.30559 118.533 3.30559ZM117.016 17.9828H120.033V5.14969H117.016V17.9828Z" fill="#4336AB"/>
</svg>
